# xmcd
#
# Track frame offsets: 
#        150
#        36128
#        57371
#        79604
#        97507
#        119948
#        139813
#        154056
#        176186
#        187695
#        209275
#        249719
#
# Disc length: 3525 seconds
#
# Revision: 1
# Processed by: cddbd v1.5.2PL0 Copyright (c) Steve Scherf et al.
# Submitted via: ExactAudioCopyFreeDBPlugin 1.0
#
DISCID=a00dc30c
DTITLE=Barbara Zoschke - Hier kommt Ponyfee! Das kleine Meermädchen
DYEAR=2008
DGENRE=Other
TTITLE0=Lasso-Unterricht
TTITLE1=Veilchen ist unterwegs
TTITLE2=Frühtstück im Bett
TTITLE3=Sternschnuppe hinterher
TTITLE4=Sirena, die Seejungfrau
TTITLE5=Hippie ist weg
TTITLE6=Die Sprudel-Badenwanne
TTITLE7=Zitronella hilft
TTITLE8=Wohin will Sternschnuppe?
TTITLE9=König Antonios Schlossteich
TTITLE10=Hippie wird eingefangen
TTITLE11=Sirena und ihre Seepferdchen
EXTD=
EXTT0=
EXTT1=
EXTT2=
EXTT3=
EXTT4=
EXTT5=
EXTT6=
EXTT7=
EXTT8=
EXTT9=
EXTT10=
EXTT11=
PLAYORDER=
